HIERARCHY
ROOT Hips
{
  OFFSET -64.0429 97.9534 35.0417
  CHANNELS 6 Xposition Yposition Zposition Zrotation Xrotation Yrotation
  JOINT ToSpine
  {
    OFFSET -2.69724 7.43032 -0.144315
    CHANNELS 3 Zrotation Xrotation Yrotation
    JOINT Spine
    {
      OFFSET -0.0310711 10.7595 1.96963
      CHANNELS 3 Zrotation Xrotation Yrotation
      JOINT Spine1
      {
        OFFSET 13.1342 3.43533 0.764692
        CHANNELS 3 Zrotation Xrotation Yrotation
        JOINT Neck
        {
          OFFSET 29.8703 7.82586 -0.130764
          CHANNELS 3 Zrotation Xrotation Yrotation
          JOINT Head
          {
            OFFSET 9.52751 0.295786 -0.907742
            CHANNELS 3 Zrotation Xrotation Yrotation
            End Site
            {
              OFFSET 16.4037 0.713936 2.7358
            }
          }
        }
        JOINT LeftShoulder
        {
          OFFSET 27.5574 4.95586 2.47156
          CHANNELS 3 Zrotation Xrotation Yrotation
          JOINT LeftArm
          {
            OFFSET 1.20734 -0.998971 20.1238
            CHANNELS 3 Zrotation Xrotation Yrotation
            JOINT LeftForeArm
            {
              OFFSET 26.8049 -0.0536703 -0.155908
              CHANNELS 3 Zrotation Xrotation Yrotation
              JOINT LeftHand
              {
                OFFSET 26.6817 0 0.320147
                CHANNELS 3 Zrotation Xrotation Yrotation
                End Site
                {
                  OFFSET 18.6119 0 0.382219
                }
              }
            }
          }
        }
        JOINT RightShoulder
        {
          OFFSET 27.5927 4.71444 -2.65209
          CHANNELS 3 Zrotation Xrotation Yrotation
          JOINT RightArm
          {
            OFFSET 2.83739 -1.17114 -18.7564
            CHANNELS 3 Zrotation Xrotation Yrotation
            JOINT RightForeArm
            {
              OFFSET 28.839 -0.0548439 1.22491
              CHANNELS 3 Zrotation Xrotation Yrotation
              JOINT RightHand
              {
                OFFSET 26.5114 0 -0.101894
                CHANNELS 3 Zrotation Xrotation Yrotation
                End Site
                {
                  OFFSET 18.2168 0 0
                }
              }
            }
          }
        }
      }
    }
  }
  JOINT LeftUpLeg
  {
    OFFSET -4.76168 -1.9167 -10.2353
    CHANNELS 3 Zrotation Xrotation Yrotation
    JOINT LeftLeg
    {
      OFFSET 2.55951 -42.0585 -8.02213
      CHANNELS 3 Zrotation Xrotation Yrotation
      JOINT LeftFoot
      {
        OFFSET 3.16357 -42.5282 -3.95426
        CHANNELS 3 Zrotation Xrotation Yrotation
        JOINT LeftToeBase
        {
          OFFSET 0.346054 -6.02161 12.8035
          CHANNELS 3 Zrotation Xrotation Yrotation
          End Site
          {
            OFFSET 0.134235 -1.35082 5.13018
          }
        }
      }
    }
  }
  JOINT RightUpLeg
  {
    OFFSET -4.94151 -1.41743 10.6446
    CHANNELS 3 Zrotation Xrotation Yrotation
    JOINT RightLeg
    {
      OFFSET -2.56294 -42.0364 -7.94377
      CHANNELS 3 Zrotation Xrotation Yrotation
      JOINT RightFoot
      {
        OFFSET -3.0952 -42.555 -4.02241
        CHANNELS 3 Zrotation Xrotation Yrotation
        JOINT RightToeBase
        {
          OFFSET -0.0828122 -6.13587 12.8035
          CHANNELS 3 Zrotation Xrotation Yrotation
          End Site
          {
            OFFSET -0.131328 -1.35082 5.13018
          }
        }
      }
    }
  }
}
MOTION
Frames:	6
Frame Time:	0.00833333
-64.0553 97.878 34.9748 3.48292 -69.7912 -86.6518 -70.1915 0 88.8779 67.6214 69.5186 23.2537 6.08422 20.6532 0.39947 -154.155 20.95 -177.525 -158.187 59.711 -179.045 -0.350021 -15.7758 -35.7083 -61.236 43.7497 -96.753 9.07123 17.5759 -27.803 0.420927 0.000584073 0.358678 -1.98958 6.34129 45.7884 -60.8863 -31.8571 98.3706 0.778429 -7.46752 22.0807 0.586721 0.000354021 0.0646882 -53.5529 2.37117 98.7747 -0.974155 18.7508 -2.10637 4.57486 -4.84631 -0.865988 0.484243 0.580134 -3.83733 -55.2987 -1.27361 80.6083 1.8454 15.5409 2.45691 -6.6507 -4.17033 1.09164 -0.0109397 -1.05633 0.829839 
-64.0459 97.8849 34.9896 3.54572 -69.7853 -86.594 -70.1915 0 88.8779 67.503 69.4899 23.3517 6.12623 20.63 0.433075 -154.256 20.8937 -177.351 -158.55 59.7059 -178.56 -0.350298 -15.7754 -35.7152 -61.3023 43.8023 -96.7505 9.08082 17.6508 -27.7545 0.420927 0.000584093 0.358678 -1.98803 6.35576 45.6944 -61.0119 -31.9205 98.3499 0.759819 -7.55305 22.0392 0.586721 0.000354009 0.0646882 -53.5873 2.39443 98.8223 -1.04279 18.6938 -2.1526 4.56972 -4.84336 -0.86552 0.458891 0.613586 -3.77775 -55.2908 -1.30796 80.5806 1.85908 15.5764 2.45031 -6.57796 -4.2218 1.08589 -0.0304523 -1.0001 0.924227 
-64.0357 97.8915 35.0051 3.5978 -69.7794 -86.5478 -70.1915 0 88.8779 67.3833 69.4661 23.4445 6.16479 20.6103 0.469698 -154.361 20.821 -177.206 -158.865 59.6783 -178.118 -0.350198 -15.7736 -35.7222 -61.3536 43.8468 -96.7548 9.08572 17.7104 -27.7111 0.420927 0.00058411 0.358678 -1.98622 6.37114 45.5926 -61.1323 -31.9754 98.3231 0.746279 -7.63874 22.002 0.586721 0.000353995 0.0646882 -53.6151 2.41109 98.8633 -1.10049 18.6471 -2.21193 4.53788 -4.82995 -0.862218 0.434621 0.621207 -3.67089 -55.28 -1.33927 80.5524 1.87655 15.614 2.49523 -6.50626 -4.25428 1.07982 -0.0243672 -0.968842 0.873096 
-64.0271 97.8989 35.0192 3.62318 -69.7736 -86.5309 -70.1915 0 88.8779 67.26 69.4544 23.5251 6.19467 20.5997 0.513883 -154.478 20.7074 -177.136 -159.063 59.5978 -177.788 -0.350851 -15.7747 -35.7289 -61.3676 43.8712 -96.7758 9.07914 17.7314 -27.6804 0.420927 0.000584117 0.358678 -1.98484 6.38468 45.5065 -61.2399 -32.0096 98.2815 0.745625 -7.72474 21.9751 0.586721 0.000353973 0.0646882 -53.6262 2.41102 98.8878 -1.13069 18.6261 -2.30402 4.4393 -4.79037 -0.851831 0.413494 0.564217 -3.44581 -55.2618 -1.36268 80.5225 1.90328 15.6571 2.66902 -6.43712 -4.23925 1.07291 0.045819 -1.00002 0.458167 
-64.0228 97.9082 35.0302 3.6034 -69.7663 -86.5628 -70.1915 0 88.8779 67.1201 69.4603 23.5968 6.21332 20.6026 0.572748 -154.614 20.5168 -177.179 -159.083 59.424 -177.616 -0.353382 -15.7835 -35.7349 -61.3215 43.8658 -96.8254 9.05438 17.6919 -27.6692 0.420927 0.00058411 0.358678 -1.9846 6.39365 45.4598 -61.3317 -32.0093 98.2133 0.766913 -7.81673 21.9642 0.586721 0.000353941 0.0646882 -53.6123 2.38667 98.8887 -1.1202 18.6412 -2.44348 4.2236 -4.7186 -0.829721 0.392916 0.421399 -3.03561 -55.2291 -1.37241 80.4888 1.94506 15.7105 3.06889 -6.36667 -4.1432 1.06407 0.223414 -1.13907 -0.586324 
-64.0261 97.9217 35.0366 3.55182 -69.758 -86.6293 -70.1915 0 88.8779 66.9687 69.4787 23.6617 6.22387 20.6151 0.641916 -154.766 20.2721 -177.303 -158.976 59.1849 -177.558 -0.358784 -15.8036 -35.7414 -61.2328 43.8392 -96.8951 9.01674 17.6094 -27.6718 0.420927 0.000584094 0.358678 -1.98644 6.39584 45.4769 -61.4121 -31.9846 98.1267 0.803734 -7.91272 21.9646 0.586721 0.000353901 0.0646882 -53.5806 2.34515 98.8726 -1.08049 18.6818 -2.61678 3.92529 -4.62361 -0.799333 0.375818 0.216881 -2.49416 -55.1863 -1.37241 80.4525 1.99659 15.7699 3.6283 -6.29549 -3.98997 1.05388 0.468114 -1.35347 -2.07497 
